<svg xmlns="http://www.w3.org/2000/svg" xmlns:xlink="http://www.w3.org/1999/xlink" width="400" zoomAndPan="magnify" viewBox="0 0 300 74.999997" height="100" preserveAspectRatio="xMidYMid meet" version="1.2"><defs><clipPath id="b523c9ecd5"><path d="M 4.0625 26.972656 L 34.0625 26.972656 L 34.0625 56.972656 L 4.0625 56.972656 Z M 4.0625 26.972656 "/></clipPath></defs><g id="19413667b0"><g style="fill:#004aad;fill-opacity:1;"><g transform="translate(41.091982, 55.78067)"><path style="stroke:none" d="M 14 -28.078125 C 15.894531 -28.078125 17.582031 -27.65625 19.0625 -26.8125 C 20.550781 -25.96875 21.734375 -24.816406 22.609375 -23.359375 C 23.492188 -21.898438 23.9375 -20.25 23.9375 -18.40625 C 23.9375 -16.5625 23.503906 -14.910156 22.640625 -13.453125 C 21.773438 -11.992188 20.59375 -10.847656 19.09375 -10.015625 C 17.59375 -9.191406 15.894531 -8.78125 14 -8.78125 L 9.3125 -8.78125 L 9.3125 0 L 3.203125 0 L 3.203125 -28.078125 Z M 13.75 -14.40625 C 14.957031 -14.40625 15.925781 -14.785156 16.65625 -15.546875 C 17.394531 -16.304688 17.765625 -17.257812 17.765625 -18.40625 C 17.765625 -19.582031 17.394531 -20.550781 16.65625 -21.3125 C 15.925781 -22.082031 14.957031 -22.46875 13.75 -22.46875 L 9.3125 -22.46875 L 9.3125 -14.40625 Z M 13.75 -14.40625 "/></g></g><g style="fill:#004aad;fill-opacity:1;"><g transform="translate(66.038349, 55.78067)"><path style="stroke:none" d="M 2.8125 0 L 2.8125 -29.484375 L 8.65625 -29.484375 L 8.65625 0 Z M 2.8125 0 "/></g></g><g style="fill:#004aad;fill-opacity:1;"><g transform="translate(77.508867, 55.78067)"><path style="stroke:none" d="M 20.5 -21.703125 L 24.875 -21.703125 L 24.875 -0.046875 L 20.25 -0.046875 L 19.78125 -1.96875 C 18.84375 -1.164062 17.773438 -0.535156 16.578125 -0.078125 C 15.390625 0.378906 14.113281 0.609375 12.75 0.609375 C 10.582031 0.609375 8.644531 0.109375 6.9375 -0.890625 C 5.226562 -1.898438 3.878906 -3.265625 2.890625 -4.984375 C 1.898438 -6.710938 1.40625 -8.675781 1.40625 -10.875 C 1.40625 -13.039062 1.898438 -14.984375 2.890625 -16.703125 C 3.878906 -18.429688 5.226562 -19.789062 6.9375 -20.78125 C 8.644531 -21.769531 10.582031 -22.265625 12.75 -22.265625 C 14.144531 -22.265625 15.441406 -22.03125 16.640625 -21.5625 C 17.847656 -21.09375 18.921875 -20.441406 19.859375 -19.609375 Z M 13.234375 -4.9375 C 14.359375 -4.9375 15.367188 -5.1875 16.265625 -5.6875 C 17.160156 -6.195312 17.859375 -6.898438 18.359375 -7.796875 C 18.867188 -8.691406 19.125 -9.71875 19.125 -10.875 C 19.125 -11.988281 18.867188 -12.992188 18.359375 -13.890625 C 17.859375 -14.785156 17.160156 -15.492188 16.265625 -16.015625 C 15.367188 -16.546875 14.359375 -16.8125 13.234375 -16.8125 C 12.085938 -16.8125 11.070312 -16.546875 10.1875 -16.015625 C 9.300781 -15.492188 8.601562 -14.785156 8.09375 -13.890625 C 7.59375 -12.992188 7.34375 -11.988281 7.34375 -10.875 C 7.34375 -9.71875 7.59375 -8.695312 8.09375 -7.8125 C 8.601562 -6.9375 9.300781 -6.238281 10.1875 -5.71875 C 11.070312 -5.195312 12.085938 -4.9375 13.234375 -4.9375 Z M 13.234375 -4.9375 "/></g></g><g style="fill:#004aad;fill-opacity:1;"><g transform="translate(105.182482, 55.78067)"><path style="stroke:none" d="M 17.765625 -21.65625 L 24.03125 -21.65625 L 14.5625 -0.28125 C 13.707031 1.664062 12.835938 3.234375 11.953125 4.421875 C 11.066406 5.617188 10.0625 6.484375 8.9375 7.015625 C 7.820312 7.554688 6.445312 7.828125 4.8125 7.828125 L 2.40625 7.828125 L 2.40625 2.53125 L 4.453125 2.53125 C 5.390625 2.53125 6.128906 2.421875 6.671875 2.203125 C 7.222656 1.992188 7.691406 1.597656 8.078125 1.015625 C 8.460938 0.441406 8.882812 -0.390625 9.34375 -1.484375 L 9.421875 -1.640625 L 0.234375 -21.65625 L 6.625 -21.65625 L 12.390625 -8.34375 Z M 17.765625 -21.65625 "/></g></g><g style="fill:#004aad;fill-opacity:1;"><g transform="translate(129.337739, 55.78067)"><path style="stroke:none" d=""/></g></g><g style="fill:#004aad;fill-opacity:1;"><g transform="translate(138.923233, 55.78067)"><path style="stroke:none" d=""/></g></g><g style="fill:#004aad;fill-opacity:1;"><g transform="translate(148.508728, 55.78067)"><path style="stroke:none" d=""/></g></g><g style="fill:#004aad;fill-opacity:1;"><g transform="translate(158.094223, 55.78067)"><path style="stroke:none" d=""/></g></g><g style="fill:#004aad;fill-opacity:1;"><g transform="translate(167.679717, 55.78067)"><path style="stroke:none" d=""/></g></g><g style="fill:#004aad;fill-opacity:1;"><g transform="translate(177.269442, 55.78067)"><path style="stroke:none" d="M 9.3125 -5.65625 L 20.0625 -5.65625 L 20.0625 0 L 3.203125 0 L 3.203125 -28.078125 L 9.3125 -28.078125 Z M 9.3125 -5.65625 "/></g></g><g style="fill:#004aad;fill-opacity:1;"><g transform="translate(198.205132, 55.78067)"><path style="stroke:none" d="M 23.828125 -10.90625 C 23.828125 -10.34375 23.785156 -9.769531 23.703125 -9.1875 L 7.34375 -9.1875 C 7.582031 -7.71875 8.171875 -6.585938 9.109375 -5.796875 C 10.046875 -5.003906 11.222656 -4.609375 12.640625 -4.609375 C 13.648438 -4.609375 14.554688 -4.828125 15.359375 -5.265625 C 16.160156 -5.710938 16.773438 -6.320312 17.203125 -7.09375 L 23.390625 -7.09375 C 22.585938 -4.738281 21.222656 -2.863281 19.296875 -1.46875 C 17.367188 -0.0820312 15.148438 0.609375 12.640625 0.609375 C 10.492188 0.609375 8.570312 0.109375 6.875 -0.890625 C 5.175781 -1.898438 3.835938 -3.265625 2.859375 -4.984375 C 1.890625 -6.710938 1.40625 -8.660156 1.40625 -10.828125 C 1.40625 -12.992188 1.890625 -14.9375 2.859375 -16.65625 C 3.835938 -18.382812 5.175781 -19.75 6.875 -20.75 C 8.570312 -21.757812 10.492188 -22.265625 12.640625 -22.265625 C 14.859375 -22.265625 16.804688 -21.75 18.484375 -20.71875 C 20.171875 -19.6875 21.484375 -18.3125 22.421875 -16.59375 C 23.359375 -14.882812 23.828125 -12.988281 23.828125 -10.90625 Z M 12.640625 -17.28125 C 11.328125 -17.28125 10.222656 -16.921875 9.328125 -16.203125 C 8.429688 -15.484375 7.820312 -14.484375 7.5 -13.203125 L 17.96875 -13.203125 C 17.113281 -15.921875 15.335938 -17.28125 12.640625 -17.28125 Z M 12.640625 -17.28125 "/></g></g><g style="fill:#004aad;fill-opacity:1;"><g transform="translate(223.392143, 55.78067)"><path style="stroke:none" d="M 20.5 -21.703125 L 24.875 -21.703125 L 24.875 -0.046875 L 20.25 -0.046875 L 19.78125 -1.96875 C 18.84375 -1.164062 17.773438 -0.535156 16.578125 -0.078125 C 15.390625 0.378906 14.113281 0.609375 12.75 0.609375 C 10.582031 0.609375 8.644531 0.109375 6.9375 -0.890625 C 5.226562 -1.898438 3.878906 -3.265625 2.890625 -4.984375 C 1.898438 -6.710938 1.40625 -8.675781 1.40625 -10.875 C 1.40625 -13.039062 1.898438 -14.984375 2.890625 -16.703125 C 3.878906 -18.429688 5.226562 -19.789062 6.9375 -20.78125 C 8.644531 -21.769531 10.582031 -22.265625 12.75 -22.265625 C 14.144531 -22.265625 15.441406 -22.03125 16.640625 -21.5625 C 17.847656 -21.09375 18.921875 -20.441406 19.859375 -19.609375 Z M 13.234375 -4.9375 C 14.359375 -4.9375 15.367188 -5.1875 16.265625 -5.6875 C 17.160156 -6.195312 17.859375 -6.898438 18.359375 -7.796875 C 18.867188 -8.691406 19.125 -9.71875 19.125 -10.875 C 19.125 -11.988281 18.867188 -12.992188 18.359375 -13.890625 C 17.859375 -14.785156 17.160156 -15.492188 16.265625 -16.015625 C 15.367188 -16.546875 14.359375 -16.8125 13.234375 -16.8125 C 12.085938 -16.8125 11.070312 -16.546875 10.1875 -16.015625 C 9.300781 -15.492188 8.601562 -14.785156 8.09375 -13.890625 C 7.59375 -12.992188 7.34375 -11.988281 7.34375 -10.875 C 7.34375 -9.71875 7.59375 -8.695312 8.09375 -7.8125 C 8.601562 -6.9375 9.300781 -6.238281 10.1875 -5.71875 C 11.070312 -5.195312 12.085938 -4.9375 13.234375 -4.9375 Z M 13.234375 -4.9375 "/></g></g><g style="fill:#004aad;fill-opacity:1;"><g transform="translate(251.065758, 55.78067)"><path style="stroke:none" d="M 13.875 -21.78125 L 15.796875 -21.78125 L 15.796875 -16.25 L 13.28125 -16.25 C 11.625 -16.25 10.4375 -15.859375 9.71875 -15.078125 C 9.007812 -14.304688 8.65625 -13.035156 8.65625 -11.265625 L 8.65625 0 L 2.8125 0 L 2.8125 -21.65625 L 6.578125 -21.65625 L 7.625 -19.015625 C 9.09375 -20.859375 11.175781 -21.78125 13.875 -21.78125 Z M 13.875 -21.78125 "/></g></g><g style="fill:#004aad;fill-opacity:1;"><g transform="translate(267.389177, 55.78067)"><path style="stroke:none" d="M 15.15625 -22.1875 C 17.613281 -22.1875 19.554688 -21.363281 20.984375 -19.71875 C 22.421875 -18.070312 23.140625 -15.867188 23.140625 -13.109375 L 23.140625 0 L 17.28125 0 L 17.28125 -12.1875 C 17.28125 -15.425781 16.023438 -17.046875 13.515625 -17.046875 C 12.015625 -17.046875 10.828125 -16.535156 9.953125 -15.515625 C 9.085938 -14.503906 8.65625 -13.128906 8.65625 -11.390625 L 8.65625 0 L 2.8125 0 L 2.8125 -21.65625 L 6.8125 -21.65625 L 7.984375 -18.96875 C 8.785156 -19.957031 9.8125 -20.738281 11.0625 -21.3125 C 12.320312 -21.894531 13.6875 -22.1875 15.15625 -22.1875 Z M 15.15625 -22.1875 "/></g></g><g style="fill:#ff914d;fill-opacity:1;"><g transform="translate(133.786109, 56.694958)"><path style="stroke:none" d="M 8.484375 -28.390625 L 1.984375 -35.25 C 6.273438 -40.226562 11.488281 -42.71875 17.625 -42.71875 C 20.3125 -42.71875 22.726562 -42.179688 24.875 -41.109375 C 27.019531 -40.046875 28.734375 -38.53125 30.015625 -36.5625 C 31.296875 -34.601562 31.9375 -32.257812 31.9375 -29.53125 C 31.9375 -27.25 31.578125 -25.363281 30.859375 -23.875 C 30.140625 -22.394531 29.066406 -21.070312 27.640625 -19.90625 C 26.210938 -18.75 24.4375 -17.46875 22.3125 -16.0625 C 21.351562 -15.457031 20.257812 -14.671875 19.03125 -13.703125 C 17.8125 -12.742188 16.671875 -11.753906 15.609375 -10.734375 C 14.546875 -9.710938 13.773438 -8.800781 13.296875 -8 L 23.875 -8 L 23.875 -12.8125 L 33.984375 -12.8125 L 33.984375 0 L 1.5 0 L 1.5 -8.71875 C 2.625 -10.53125 3.597656 -11.992188 4.421875 -13.109375 C 5.242188 -14.234375 6.101562 -15.238281 7 -16.125 C 7.90625 -17.007812 9 -17.953125 10.28125 -18.953125 C 11.363281 -19.910156 12.515625 -20.789062 13.734375 -21.59375 C 14.960938 -22.394531 16.117188 -23.1875 17.203125 -23.96875 C 18.285156 -24.75 19.175781 -25.550781 19.875 -26.375 C 20.582031 -27.195312 20.9375 -28.070312 20.9375 -29 C 20.9375 -30.519531 20.441406 -31.5625 19.453125 -32.125 C 18.472656 -32.6875 17.28125 -32.96875 15.875 -32.96875 C 14.789062 -32.96875 13.804688 -32.71875 12.921875 -32.21875 C 12.046875 -31.71875 11.238281 -31.113281 10.5 -30.40625 C 9.757812 -29.707031 9.085938 -29.035156 8.484375 -28.390625 Z M 8.484375 -28.390625 "/></g></g><g clip-rule="nonzero" clip-path="url(#b523c9ecd5)"><path style=" stroke:none;fill-rule:nonzero;fill:#004aad;fill-opacity:1;" d="M 25.015625 43.398438 L 17.195312 48.71875 C 16.964844 48.875 16.695312 48.953125 16.429688 48.945312 C 16.222656 48.941406 16.015625 48.890625 15.824219 48.789062 C 15.390625 48.550781 15.125 48.09375 15.136719 47.601562 L 15.34375 36.667969 C 15.355469 36.175781 15.636719 35.726562 16.078125 35.507812 C 16.523438 35.289062 17.050781 35.339844 17.445312 35.628906 L 25.054688 41.246094 C 25.398438 41.5 25.601562 41.90625 25.589844 42.332031 C 25.582031 42.761719 25.367188 43.15625 25.015625 43.398438 Z M 19.0625 26.972656 C 10.777344 26.972656 4.0625 33.6875 4.0625 41.972656 C 4.0625 50.257812 10.777344 56.972656 19.0625 56.972656 C 27.347656 56.972656 34.0625 50.257812 34.0625 41.972656 C 34.0625 33.6875 27.347656 26.972656 19.0625 26.972656 "/></g></g></svg>